<svg width="47" height="47" viewBox="0 0 47 47" fill="none" xmlns="http://www.w3.org/2000/svg">
<rect x="0.5" y="0.5" width="46" height="46" rx="23" stroke="white"/>
<path d="M28.7064 17.2563C27.7227 16.6617 26.682 16.2392 25.6118 16C25.4785 16.3113 25.3228 16.7301 25.2154 17.0632C24.0616 16.839 22.9183 16.839 21.7857 17.0632C21.6784 16.7301 21.5191 16.3113 21.3846 16C20.3134 16.2393 19.2718 16.6629 18.2876 17.2594C16.3292 21.0826 15.7983 24.8107 16.0637 28.486C17.3627 29.7391 18.6215 30.5003 19.8591 30.9985C20.1667 30.4521 20.4386 29.8736 20.672 29.269C20.2276 29.0504 19.7992 28.7811 19.3919 28.4642C19.4991 28.3616 19.6038 28.2546 19.7058 28.1435C22.1738 29.6348 24.8556 29.6348 27.2942 28.1435C27.3967 28.2539 27.5013 28.3608 27.608 28.4642C27.2001 28.782 26.7709 29.0518 26.3256 29.2706C26.5603 29.8776 26.8317 30.4567 27.1385 31C28.3773 30.5019 29.6373 29.7407 30.9362 28.486C31.2477 24.2254 30.4042 20.5315 28.7064 17.2563ZM21.0082 26.2257C20.2673 26.2257 19.6597 25.3322 19.6597 24.2441C19.6597 23.156 20.2544 22.2609 21.0082 22.2609C21.7621 22.2609 22.3697 23.1544 22.3568 24.2441C22.3579 25.3322 21.7622 26.2257 21.0082 26.2257ZM25.9917 26.2257C25.2508 26.2257 24.6432 25.3322 24.6432 24.2441C24.6432 23.156 25.2378 22.2609 25.9917 22.2609C26.7456 22.2609 27.3532 23.1544 27.3402 24.2441C27.3402 25.3322 26.7456 26.2257 25.9917 26.2257Z" fill="white"/>
</svg>
