<svg width="25" height="20" viewBox="0 0 25 20" fill="none" xmlns="http://www.w3.org/2000/svg">
<path d="M22.6974 13.425H2.30259C1.36411 13.425 0.603027 14.3593 0.603027 15.5115V17.598C0.603027 18.7501 1.36411 19.6845 2.30259 19.6845H22.6974C23.6359 19.6845 24.3969 18.7501 24.3969 17.598V15.5115C24.3969 14.3593 23.6359 13.425 22.6974 13.425ZM22.6974 0.905884H2.30259C1.36411 0.905884 0.603027 1.84025 0.603027 2.9924V5.07891C0.603027 6.23106 1.36411 7.16543 2.30259 7.16543H22.6974C23.6359 7.16543 24.3969 6.23106 24.3969 5.07891V2.9924C24.3969 1.84025 23.6359 0.905884 22.6974 0.905884Z" fill="#2E3192"/>
</svg>
