<svg width="28" height="22" viewBox="0 0 28 22" fill="none" xmlns="http://www.w3.org/2000/svg">
<path d="M23.7184 2.36914C21.8821 1.53671 19.9395 0.945236 17.9418 0.610352C17.693 1.04621 17.4023 1.63243 17.2018 2.09881C15.048 1.785 12.914 1.785 10.7998 2.09881C10.5994 1.63254 10.3021 1.04621 10.051 0.610352C8.05138 0.945381 6.10709 1.53836 4.26997 2.37348C0.614217 7.72593 -0.37683 12.9453 0.118639 18.0908C2.54337 19.8451 4.89318 20.9108 7.2034 21.6082C7.77759 20.8433 8.28512 20.0334 8.72076 19.1869C7.89129 18.881 7.09165 18.5039 6.33136 18.0602C6.53142 17.9165 6.72679 17.7668 6.91717 17.6112C11.5243 19.6991 16.5301 19.6991 21.0823 17.6112C21.2735 17.7658 21.4688 17.9155 21.668 18.0602C20.9065 18.5051 20.1054 18.8829 19.2742 19.1891C19.7124 20.039 20.219 20.8497 20.7916 21.6104C23.104 20.9131 25.456 19.8473 27.8807 18.0908C28.4622 12.1259 26.8876 6.95447 23.7184 2.36914ZM9.34846 14.9264C7.96542 14.9264 6.8312 13.6754 6.8312 12.1521C6.8312 10.6288 7.94125 9.37567 9.34846 9.37567C10.7557 9.37567 11.8899 10.6265 11.8657 12.1521C11.8679 13.6754 10.7558 14.9264 9.34846 14.9264ZM18.6509 14.9264C17.2679 14.9264 16.1338 13.6754 16.1338 12.1521C16.1338 10.6288 17.2437 9.37567 18.6509 9.37567C20.0582 9.37567 21.1923 10.6265 21.1682 12.1521C21.1682 13.6754 20.0582 14.9264 18.6509 14.9264Z" fill="white"/>
</svg>
