<svg width="18" height="23" viewBox="0 0 18 23" fill="none" xmlns="http://www.w3.org/2000/svg">
<path d="M14.2804 4.05702C13.4958 3.10311 13.0634 1.87828 13.0635 0.610352H9.51634V15.7659C9.48955 16.5863 9.16451 17.3634 8.6098 17.9335C8.05509 18.5036 7.31409 18.822 6.54312 18.8215C4.91302 18.8215 3.55843 17.4037 3.55843 15.6437C3.55843 13.5415 5.46404 11.9648 7.42705 12.6126V8.75035C3.46659 8.18813 -0.000244141 11.4637 -0.000244141 15.6437C-0.000244141 19.7137 3.16812 22.6104 6.53164 22.6104C10.1362 22.6104 13.0635 19.4937 13.0635 15.6437V7.95591C14.5019 9.05572 16.2289 9.64581 17.9998 9.64257V5.86591C17.9998 5.86591 15.8416 5.97591 14.2804 4.05702Z" fill="white"/>
</svg>
