<svg width="27" height="20" viewBox="0 0 27 20" fill="none" xmlns="http://www.w3.org/2000/svg">
<path fill-rule="evenodd" clip-rule="evenodd" d="M13.5613 0.610352C14.3282 0.611624 22.0479 0.638597 24.0474 1.1766C25.2097 1.4868 26.1236 2.40376 26.4355 3.57691C26.9772 5.60933 26.9989 9.75445 26.9998 10.0828V10.1244C26.9989 10.4537 26.9772 14.6112 26.4355 16.6437C26.1236 17.8169 25.2097 18.7338 24.0474 19.044C21.9848 19.599 13.835 19.6102 13.5098 19.6104H13.4898C13.1645 19.6102 5.01341 19.599 2.94949 19.044C1.78853 18.7338 0.873228 17.8169 0.562707 16.6437C0.022284 14.6112 0.000641798 10.4537 -0.000244141 10.1243V10.0828C0.000641798 9.75445 0.022284 5.60933 0.562707 3.57691C0.873228 2.40376 1.78847 1.4868 2.94949 1.17667C4.95019 0.638597 12.6712 0.611688 13.4383 0.610352H13.5613ZM10.7377 6.09854V14.122L17.7954 10.1036L10.7377 6.09854Z" fill="white"/>
</svg>
