<svg width="49" height="49" viewBox="0 0 49 49" fill="none" xmlns="http://www.w3.org/2000/svg">
<rect x="0.5" y="0.5" width="48" height="48" rx="24" stroke="white"/>
<path d="M25.2282 17.4167C26.025 17.4188 26.4295 17.423 26.7787 17.433L26.9161 17.4379C27.0748 17.4436 27.2313 17.4507 27.4205 17.4592C28.1741 17.4946 28.6884 17.6136 29.1396 17.7885C29.6071 17.9685 30.0009 18.2121 30.3947 18.6053C30.7551 18.9592 31.0338 19.3876 31.2115 19.8604C31.3864 20.3116 31.5054 20.8259 31.5408 21.5803C31.5493 21.7687 31.5564 21.9252 31.5621 22.0846L31.5663 22.222C31.577 22.5705 31.5812 22.975 31.5826 23.7718L31.5833 24.3003V25.2282C31.5851 25.7448 31.5796 26.2615 31.567 26.778L31.5628 26.9154C31.5571 27.0748 31.55 27.2313 31.5415 27.4198C31.5061 28.1741 31.3857 28.6877 31.2115 29.1396C31.0338 29.6124 30.7551 30.0408 30.3947 30.3948C30.0408 30.7551 29.6124 31.0338 29.1396 31.2115C28.6884 31.3864 28.1741 31.5054 27.4205 31.5408L26.9161 31.5621L26.7787 31.5663C26.4295 31.5763 26.025 31.5812 25.2282 31.5826L24.6997 31.5833H23.7725C23.2556 31.5852 22.7387 31.5797 22.222 31.567L22.0846 31.5628C21.9164 31.5564 21.7483 31.5491 21.5802 31.5408C20.8266 31.5054 20.3123 31.3864 19.8604 31.2115C19.3878 31.0337 18.9597 30.755 18.606 30.3948C18.2454 30.0408 17.9664 29.6125 17.7885 29.1396C17.6136 28.6884 17.4946 28.1741 17.4592 27.4198L17.4379 26.9154L17.4344 26.778C17.4213 26.2615 17.4154 25.7448 17.4167 25.2282V23.7718C17.4147 23.2552 17.4199 22.7385 17.4322 22.222L17.4372 22.0846C17.4429 21.9252 17.45 21.7687 17.4585 21.5803C17.4939 20.8259 17.6129 20.3123 17.7878 19.8604C17.9661 19.3874 18.2456 18.959 18.6067 18.6053C18.9602 18.2451 19.3881 17.9664 19.8604 17.7885C20.3123 17.6136 20.8259 17.4946 21.5802 17.4592C21.7687 17.4507 21.9259 17.4436 22.0846 17.4379L22.222 17.4337C22.7385 17.4211 23.2552 17.4157 23.7718 17.4174L25.2282 17.4167ZM24.5 20.9583C23.5607 20.9583 22.6599 21.3315 21.9957 21.9957C21.3315 22.6599 20.9583 23.5607 20.9583 24.5C20.9583 25.4393 21.3315 26.3401 21.9957 27.0043C22.6599 27.6685 23.5607 28.0417 24.5 28.0417C25.4393 28.0417 26.3401 27.6685 27.0043 27.0043C27.6685 26.3401 28.0417 25.4393 28.0417 24.5C28.0417 23.5607 27.6685 22.6599 27.0043 21.9957C26.3401 21.3315 25.4393 20.9583 24.5 20.9583ZM24.5 22.375C24.7791 22.375 25.0554 22.4299 25.3132 22.5366C25.5711 22.6434 25.8053 22.7999 26.0027 22.9972C26.2001 23.1944 26.3566 23.4287 26.4635 23.6865C26.5703 23.9443 26.6253 24.2206 26.6253 24.4997C26.6254 24.7787 26.5705 25.055 26.4637 25.3129C26.357 25.5707 26.2005 25.805 26.0032 26.0024C25.8059 26.1997 25.5717 26.3563 25.3139 26.4631C25.0561 26.5699 24.7798 26.625 24.5007 26.625C23.9371 26.625 23.3966 26.4011 22.9981 26.0026C22.5996 25.6041 22.3757 25.0636 22.3757 24.5C22.3757 23.9364 22.5996 23.3959 22.9981 22.9974C23.3966 22.5989 23.9371 22.375 24.5007 22.375M28.2195 19.8958C27.9846 19.8958 27.7594 19.9891 27.5934 20.1552C27.4273 20.3212 27.334 20.5464 27.334 20.7813C27.334 21.0161 27.4273 21.2413 27.5934 21.4073C27.7594 21.5734 27.9846 21.6667 28.2195 21.6667C28.4543 21.6667 28.6795 21.5734 28.8455 21.4073C29.0116 21.2413 29.1049 21.0161 29.1049 20.7813C29.1049 20.5464 29.0116 20.3212 28.8455 20.1552C28.6795 19.9891 28.4543 19.8958 28.2195 19.8958Z" fill="white"/>
</svg>
