<svg width="47" height="47" viewBox="0 0 47 47" fill="none" xmlns="http://www.w3.org/2000/svg">
<rect x="0.5" y="0.5" width="46" height="46" rx="23" stroke="white"/>
<path d="M27.9005 18.35C27.2467 17.6996 26.8864 16.8645 26.8865 16H23.9305V26.3333C23.9082 26.8927 23.6373 27.4226 23.175 27.8112C22.7128 28.1999 22.0953 28.417 21.4528 28.4167C20.0944 28.4167 18.9656 27.45 18.9656 26.25C18.9656 24.8167 20.5536 23.7417 22.1894 24.1833V21.55C18.889 21.1667 16 23.4 16 26.25C16 29.025 18.6403 31 21.4432 31C24.4471 31 26.8865 28.875 26.8865 26.25V21.0083C28.0851 21.7582 29.5243 22.1605 31 22.1583V19.5833C31 19.5833 29.2015 19.6583 27.9005 18.35Z" fill="white"/>
</svg>
