<svg width="48" height="47" viewBox="0 0 48 47" fill="none" xmlns="http://www.w3.org/2000/svg">
<rect x="0.5" y="0.5" width="47" height="46" rx="23" stroke="white"/>
<path fill-rule="evenodd" clip-rule="evenodd" d="M24.0364 18C24.491 18.0007 29.0656 18.0164 30.2504 18.3278C30.9392 18.5074 31.4808 19.0383 31.6656 19.7175C31.9866 20.8941 31.9995 23.294 32 23.4841V23.5081C31.9995 23.6988 31.9866 26.1058 31.6656 27.2825C31.4808 27.9617 30.9392 28.4925 30.2504 28.6721C29.0282 28.9934 24.1986 28.9999 24.0059 29H23.9941C23.8013 28.9999 18.9711 28.9934 17.748 28.6721C17.06 28.4925 16.5176 27.9617 16.3336 27.2825C16.0134 26.1058 16.0005 23.6988 16 23.5081V23.4841C16.0005 23.294 16.0134 20.8941 16.3336 19.7175C16.5176 19.0383 17.06 18.5074 17.748 18.3279C18.9336 18.0164 23.509 18.0008 23.9636 18H24.0364ZM22.3632 21.1774V25.8226L26.5456 23.4961L22.3632 21.1774Z" fill="white"/>
</svg>
